<svg width="80" height="73" viewBox="0 0 80 73" fill="none" xmlns="http://www.w3.org/2000/svg">
<path d="M50.7658 45.9146L49.9998 46.2731V53.8643H41.4041V35.1358L49.7303 27.6342C49.8929 27.5242 50.0274 27.3839 50.1247 27.2228C50.222 27.0618 50.2797 26.8838 50.2942 26.7008C50.3086 26.5179 50.2792 26.3343 50.2082 26.1624C50.1371 25.9906 50.026 25.8346 49.8823 25.7049C49.7386 25.5752 49.5656 25.4749 49.3753 25.4107C49.1849 25.3466 48.9814 25.3202 48.7787 25.3332C48.576 25.3462 48.3788 25.3983 48.2003 25.4861C48.0219 25.5739 47.8665 25.6953 47.7445 25.842L40.014 32.8316L32.2268 25.842C32.1049 25.6953 31.9494 25.5739 31.771 25.4861C31.5926 25.3983 31.3953 25.3462 31.1926 25.3332C30.9899 25.3202 30.7864 25.3466 30.5961 25.4107C30.4057 25.4749 30.2328 25.5752 30.0891 25.7049C29.9454 25.8346 29.8342 25.9906 29.7632 26.1624C29.6921 26.3343 29.6628 26.5179 29.6772 26.7008C29.6916 26.8838 29.7494 27.0618 29.8467 27.2228C29.9439 27.3839 30.0784 27.5242 30.241 27.6342L38.5672 35.1358V53.8387H29.9857V46.2475L29.2197 45.889C24.4661 43.7086 20.6646 40.1468 18.4285 35.7779C16.1923 31.409 15.6517 26.4877 16.8939 21.8076C18.136 17.1275 21.0885 12.9614 25.2753 9.98101C29.4621 7.00066 34.6391 5.3798 39.9715 5.3798C45.3039 5.3798 50.4809 7.00066 54.6676 9.98101C58.8544 12.9614 61.8069 17.1275 63.0491 21.8076C64.2913 26.4877 63.7507 31.409 61.5145 35.7779C59.2783 40.1468 55.4769 43.7086 50.7233 45.889L50.7658 45.9146ZM49.9856 63.7214H30.0141V61.2764H49.9856V63.7214ZM40.0566 68.0739C39.4941 68.075 38.9505 67.891 38.5275 67.5564C38.1045 67.2218 37.8312 66.7595 37.7587 66.2561H42.3686C42.2855 66.7648 41.9984 67.2283 41.5618 67.5586C41.1251 67.889 40.5694 68.0632 39.9999 68.0483L40.0566 68.0739ZM30.1275 56.463H50.0991V58.8313H30.0283L30.1275 56.463ZM40.0566 2.85061C34.168 2.85813 28.4493 4.63202 23.7999 7.8932C19.1504 11.1544 15.834 15.7179 14.3722 20.8659C12.9104 26.014 13.3862 31.4545 15.7248 36.3319C18.0633 41.2092 22.1319 45.2467 27.2906 47.8093V53.9283V58.8313V66.2561H34.9644C35.0606 67.4224 35.6419 68.5126 36.5916 69.3082C37.5413 70.1039 38.7892 70.546 40.085 70.546C41.3808 70.546 42.6287 70.1039 43.5783 69.3082C44.528 68.5126 45.1093 67.4224 45.2055 66.2561H52.8793V61.2764V53.8515V47.7325C58.038 45.1699 62.1067 41.1324 64.4452 36.2551C66.7837 31.3777 67.2595 25.9372 65.7977 20.7891C64.3359 15.6411 61.0195 11.0775 56.37 7.81636C51.7206 4.55518 46.0019 2.78133 40.1133 2.7738L40.0566 2.85061Z" fill="#212121"/>
<path d="M47.4043 10.493C47.0281 10.493 46.6673 10.6279 46.4013 10.8679C46.1353 11.108 45.9858 11.4336 45.9858 11.7731C45.9858 12.1126 46.1353 12.4383 46.4013 12.6783C46.6673 12.9184 47.0281 13.0533 47.4043 13.0533C49.6171 13.0533 54.7802 15.4471 54.7802 20.0813C54.7802 20.4208 54.9296 20.7464 55.1956 20.9864C55.4617 21.2265 55.8224 21.3614 56.1986 21.3614C56.5748 21.3614 56.9356 21.2265 57.2016 20.9864C57.4676 20.7464 57.6171 20.4208 57.6171 20.0813C57.5887 13.783 50.9646 10.493 47.4043 10.493Z" fill="#212121"/>
<path d="M9.33362 29.1958C9.33362 28.8563 9.1842 28.5307 8.91819 28.2907C8.65218 28.0506 8.29136 27.9158 7.91517 27.9158H1.56054C1.18434 27.9158 0.823532 28.0506 0.557522 28.2907C0.291511 28.5307 0.14209 28.8563 0.14209 29.1958C0.14209 29.5353 0.291511 29.8609 0.557522 30.101C0.823532 30.341 1.18434 30.4759 1.56054 30.4759H7.91517C8.29136 30.4759 8.65218 30.341 8.91819 30.101C9.1842 29.8609 9.33362 29.5353 9.33362 29.1958Z" fill="#212121"/>
<path d="M9.81556 12.631C9.93591 12.7818 10.0912 12.9073 10.2707 12.9985C10.4502 13.0897 10.6495 13.1445 10.8549 13.1592C11.0602 13.1738 11.2666 13.148 11.4598 13.0833C11.6529 13.0187 11.8281 12.9169 11.9733 12.785C12.1184 12.653 12.23 12.4942 12.3002 12.3194C12.3704 12.1446 12.3976 11.9581 12.3799 11.7729C12.3622 11.5877 12.3 11.4082 12.1976 11.2469C12.0953 11.0856 11.9552 10.9463 11.7872 10.8387L7.30487 6.78062C7.03972 6.54606 6.68327 6.41467 6.31198 6.41467C5.9407 6.41467 5.5842 6.54606 5.31905 6.78062C5.05915 7.01992 4.91357 7.34166 4.91357 7.67675C4.91357 8.01183 5.05915 8.33354 5.31905 8.57284L9.81556 12.631Z" fill="#212121"/>
<path d="M9.81547 45.7482L5.27641 49.7551C5.08668 49.9345 4.95883 50.1599 4.90838 50.4038C4.85793 50.6476 4.88705 50.8994 4.99223 51.1286C5.09741 51.3578 5.27414 51.5544 5.50086 51.6947C5.72758 51.8349 5.99456 51.9127 6.26934 51.9185C6.64146 51.9171 6.99803 51.7838 7.26223 51.5473L11.7445 47.4892C11.9407 47.2433 12.0339 46.9424 12.0074 46.6403C11.981 46.3382 11.8366 46.0544 11.6 45.8393C11.3634 45.6242 11.0499 45.4919 10.7153 45.4658C10.3808 45.4397 10.0468 45.5217 9.77292 45.697L9.81547 45.7482Z" fill="#212121"/>
<path d="M78.4396 27.9926H72.085C71.7088 27.9926 71.3479 28.1274 71.0819 28.3675C70.8159 28.6076 70.6665 28.9332 70.6665 29.2727C70.6665 29.6122 70.8159 29.9378 71.0819 30.1779C71.3479 30.418 71.7088 30.5529 72.085 30.5529H78.4396C78.8158 30.5529 79.1766 30.418 79.4426 30.1779C79.7086 29.9378 79.858 29.6122 79.858 29.2727C79.858 28.9332 79.7086 28.6076 79.4426 28.3675C79.1766 28.1274 78.8158 27.9926 78.4396 27.9926V27.9926Z" fill="#212121"/>
<path d="M69.2058 13.0278C69.5779 13.0264 69.9345 12.893 70.1987 12.6565L74.6952 8.59846C74.8578 8.48842 74.9923 8.34812 75.0895 8.18709C75.1868 8.02605 75.2446 7.84802 75.259 7.66507C75.2734 7.48212 75.2441 7.29852 75.173 7.12669C75.102 6.95486 74.9908 6.79882 74.8471 6.66913C74.7034 6.53944 74.5305 6.43913 74.3401 6.375C74.1497 6.31086 73.9463 6.28441 73.7435 6.29741C73.5408 6.31041 73.3436 6.36257 73.1652 6.45036C72.9867 6.53815 72.8313 6.65953 72.7094 6.80626L68.2128 10.8643C67.953 11.1036 67.8074 11.4254 67.8074 11.7604C67.8074 12.0955 67.953 12.4172 68.2128 12.6565C68.4771 12.893 68.8337 13.0264 69.2058 13.0278V13.0278Z" fill="#212121"/>
<path d="M70.1987 45.7482C69.9255 45.5633 69.5877 45.4736 69.2471 45.4954C68.9065 45.5173 68.5861 45.6492 68.3446 45.8671C68.1032 46.085 67.957 46.3742 67.9328 46.6816C67.9086 46.989 68.008 47.2939 68.2129 47.5404L72.7093 51.5985C72.9735 51.835 73.3301 51.9683 73.7022 51.9697C73.977 51.9639 74.244 51.8861 74.4707 51.7459C74.6974 51.6056 74.8741 51.409 74.9793 51.1798C75.0845 50.9506 75.1136 50.6988 75.0632 50.4549C75.0127 50.2111 74.8849 49.9858 74.6951 49.8063L70.1987 45.7482Z" fill="#212121"/>
</svg>
