<svg width="80" height="73" viewBox="0 0 80 73" fill="none" xmlns="http://www.w3.org/2000/svg">
<path d="M68.4257 26.2644C66.5959 29.388 64.3264 31.385 61.9576 31.897V29.0167C61.9576 28.7607 61.9576 28.5046 61.9576 28.2486C61.9576 27.9926 61.9576 27.7494 61.9576 27.5062V12.4389H72.1845C72.051 17.2381 70.7687 21.9545 68.4257 26.2644ZM59.1774 28.9783C58.8893 33.3658 56.7637 37.4903 53.2315 40.5161C49.6992 43.5419 45.0245 45.2426 40.1546 45.2735C35.2847 45.3044 30.5839 43.6633 27.0048 40.6827C23.4257 37.7021 21.2361 33.6049 20.8796 29.2215C20.8662 29.0995 20.8377 28.9793 20.7944 28.8631V11.2483C20.7944 11.1843 20.7944 11.1203 20.7944 11.0563V3.52909H59.0923V6.38382H31.3476C30.9714 6.38382 30.6107 6.51867 30.3446 6.75875C30.0786 6.99882 29.9292 7.32445 29.9292 7.66396C29.9292 8.00348 30.0786 8.32907 30.3446 8.56914C30.6107 8.80921 30.9714 8.9441 31.3476 8.9441H59.1065V26.3796C59.1065 26.8149 59.2058 27.2373 59.22 27.6598L59.1774 28.9783ZM36.837 55.7716V47.886C37.885 48.0192 38.9418 48.0877 40.0001 48.0908C41.0349 48.0877 42.0681 48.0192 43.0923 47.886V55.7716C41.0433 55.2768 38.8861 55.2768 36.837 55.7716ZM48.5675 63.7341H31.5462C32.0833 62.0722 33.2032 60.6124 34.7377 59.5737C36.2722 58.535 38.1387 57.9735 40.0569 57.9735C41.975 57.9735 43.8415 58.535 45.376 59.5737C46.9105 60.6124 48.0304 62.0722 48.5675 63.7341ZM59.2625 66.2304V69.9812H20.7944V66.2304H59.22H59.2625ZM18.1278 31.9354C15.759 31.385 13.4895 29.3752 11.6455 26.3028C9.30733 21.9919 8.0299 17.2755 7.90083 12.4773H18.1136V29.3239C18.1066 29.3878 18.1066 29.4521 18.1136 29.5159L18.1278 31.9354ZM74.7661 10.3395C74.5019 10.103 74.1453 9.96962 73.7732 9.9682H61.9859V8.12479C62.0704 7.96485 62.1142 7.78992 62.1142 7.61275C62.1142 7.43558 62.0704 7.26064 61.9859 7.1007V2.24895C61.9859 1.90944 61.8365 1.58381 61.5705 1.34374C61.3045 1.10366 60.9437 0.968811 60.5675 0.968811H19.4327C19.0565 0.968811 18.6958 1.10366 18.4297 1.34374C18.1637 1.58381 18.0143 1.90944 18.0143 2.24895V9.9298H6.36891C5.99679 9.93121 5.6402 10.0646 5.376 10.3011C5.11915 10.5415 4.97661 10.8631 4.97883 11.1971C4.95427 16.8249 6.36157 22.3826 9.09231 27.4421C11.759 31.961 15.3334 34.4701 19.22 34.5597C20.358 37.6276 22.31 40.3979 24.9059 42.6291C27.5018 44.8603 30.6628 46.4848 34.1136 47.3611V56.7957C32.6929 57.5113 31.4692 58.5067 30.5335 59.7079C29.5979 60.9092 28.9743 62.2854 28.7093 63.7341H19.4469C19.0707 63.7341 18.7099 63.869 18.4439 64.1091C18.1779 64.3492 18.0285 64.6748 18.0285 65.0143V71.2614C18.0285 71.6009 18.1779 71.9265 18.4439 72.1665C18.7099 72.4066 19.0707 72.5415 19.4469 72.5415H60.6526C61.0288 72.5415 61.3896 72.4066 61.6556 72.1665C61.9216 71.9265 62.071 71.6009 62.071 71.2614V65.0143C62.071 64.6748 61.9216 64.3492 61.6556 64.1091C61.3896 63.869 61.0288 63.7341 60.6526 63.7341H51.4044C51.1293 62.2886 50.4985 60.9171 49.5583 59.7207C48.6181 58.5244 47.3925 57.5336 45.9717 56.8214V47.3995C49.4329 46.5273 52.6054 44.9051 55.2135 42.6741C57.8216 40.443 59.7861 37.6706 60.9363 34.5981C64.7803 34.4829 68.3406 31.961 70.9789 27.4805C73.699 22.4237 75.092 16.8694 75.0498 11.2483C75.0584 11.0744 75.0277 10.9006 74.9594 10.7377C74.8911 10.5749 74.7867 10.4263 74.6526 10.3011L74.7661 10.3395Z" fill="#212121"/>
<path d="M43.9146 25.0354C43.7526 25.1779 43.6307 25.3534 43.5591 25.5472C43.4876 25.7409 43.4684 25.9473 43.5033 26.1491L44.1841 29.6951L40.6522 28.0181C40.4524 27.926 40.2312 27.8779 40.0068 27.8779C39.7824 27.8779 39.5612 27.926 39.3614 28.0181L35.8011 29.6951L36.4678 26.1491C36.5045 25.9483 36.4875 25.7426 36.4185 25.5489C36.3494 25.3552 36.2302 25.1791 36.0707 25.0354L33.2338 22.4751L37.177 21.9502C37.399 21.9201 37.6099 21.843 37.7923 21.725C37.9748 21.6071 38.1237 21.4517 38.2267 21.2717L39.9997 18.0458L41.7586 21.2717C41.8616 21.4517 42.0105 21.6071 42.1929 21.725C42.3754 21.843 42.5863 21.9201 42.8082 21.9502L46.7515 22.4751L43.9146 25.0354ZM49.943 20.4141L43.943 19.6204L41.2479 14.7047C41.1253 14.5046 40.9455 14.3378 40.7272 14.2217C40.5089 14.1055 40.2602 14.0443 40.0068 14.0443C39.7534 14.0443 39.5047 14.1055 39.2864 14.2217C39.0682 14.3378 38.8883 14.5046 38.7657 14.7047L36.0707 19.6204L30.0565 20.4141C29.8024 20.45 29.5639 20.5475 29.3665 20.6964C29.1691 20.8452 29.0203 21.0397 28.9359 21.259C28.8607 21.4813 28.8539 21.7179 28.9164 21.9435C28.9788 22.169 29.1082 22.3749 29.2905 22.5391L33.6451 26.3795L32.6097 31.7817C32.586 32.0064 32.6286 32.2328 32.7332 32.4379C32.8377 32.6429 33.0005 32.8194 33.205 32.9494C33.4095 33.0794 33.6485 33.1582 33.8977 33.178C34.1468 33.1977 34.3974 33.1577 34.6238 33.0618L40.0139 30.5016L45.3756 33.0618C45.5775 33.1552 45.8013 33.2035 46.0281 33.2026C46.3203 33.2065 46.6054 33.1208 46.8366 32.9594C47.0446 32.8223 47.2073 32.6366 47.3073 32.4224C47.4072 32.2081 47.4407 31.9734 47.404 31.7433L46.3685 26.3411L50.7231 22.5007C50.8983 22.3329 51.0201 22.1256 51.0755 21.9006C51.131 21.6755 51.1181 21.4411 51.0382 21.2222C50.9583 21.0032 50.8143 20.8078 50.6216 20.6566C50.4288 20.5053 50.1943 20.4038 49.943 20.3629V20.4141Z" fill="#212121"/>
</svg>
