<svg width="81" height="73" viewBox="0 0 81 73" fill="none" xmlns="http://www.w3.org/2000/svg">
<path d="M77.4147 70.3106H2.98669V67.2696H77.4147V70.3106ZM25.0144 34.7853H35.7054V64.726H25.0144V34.7853ZM22.1959 35.3537V64.6834H18.8579V35.4106L22.1959 35.3537ZM10.5602 29.2576H69.8255V32.2559H10.5602V29.2576ZM38.5396 35.3537H41.8618V64.6834H38.5396V35.3537ZM55.3713 64.7829H44.6645V34.8421H55.3713V64.7829ZM58.1897 64.7829V35.4106H61.512V64.7402L58.1897 64.7829ZM40.1771 3.49461L74.7065 26.6855H5.66338L40.1771 3.49461ZM78.8003 64.8255H64.3461V34.8421H71.2426C71.6142 34.8421 71.9706 34.7089 72.2334 34.4717C72.4962 34.2346 72.6439 33.9129 72.6439 33.5774V29.1865H78.942C79.1273 29.1884 79.3113 29.1571 79.4831 29.0944C79.6549 29.0316 79.8113 28.9388 79.9431 28.8212C80.0749 28.7035 80.1795 28.5635 80.2509 28.4091C80.3223 28.2547 80.3591 28.0891 80.3591 27.9218C80.3581 27.7113 80.3003 27.5042 80.1905 27.3185C80.0808 27.1328 79.9224 26.974 79.7293 26.8561L41.0116 0.851528C40.7687 0.686669 40.4731 0.597534 40.1692 0.597534C39.8653 0.597534 39.5697 0.686669 39.3268 0.851528L0.577646 26.8987C0.337484 27.0562 0.158944 27.2784 0.0677551 27.5334C-0.0234341 27.7883 -0.0225572 28.0628 0.0702657 28.3173C0.163089 28.5718 0.343061 28.7931 0.584229 28.9493C0.825398 29.1055 1.11531 29.1886 1.41216 29.1865H7.71028V33.5774C7.71028 33.9166 7.85957 34.2419 8.12533 34.4818C8.39108 34.7216 8.75151 34.8564 9.12734 34.8564H16.008V64.7829H1.56961C1.19795 64.7829 0.841516 64.9161 0.578716 65.1533C0.315915 65.3905 0.168277 65.7122 0.168277 66.0476V71.5327C0.168277 71.8681 0.315915 72.1898 0.578716 72.427C0.841516 72.6641 1.19795 72.7974 1.56961 72.7974H78.816C79.0014 72.7993 79.1853 72.7679 79.3571 72.7052C79.529 72.6425 79.6853 72.5496 79.8171 72.432C79.9489 72.3144 80.0536 72.1744 80.125 72.02C80.1964 71.8656 80.2331 71.7 80.2331 71.5327V65.9907C80.2168 65.6628 80.0598 65.3534 79.7954 65.128C79.5309 64.9026 79.1797 64.7789 78.816 64.7829L78.8003 64.8255Z" fill="#212121"/>
<path d="M40.1927 13.6974C39.408 13.6974 38.6408 13.9074 37.9883 14.3009C37.3358 14.6943 36.8273 15.2536 36.5269 15.9079C36.2266 16.5623 36.148 17.2823 36.3011 17.9769C36.4542 18.6716 36.8322 19.3096 37.3871 19.8104C37.942 20.3112 38.649 20.6523 39.4186 20.7905C40.1883 20.9286 40.9861 20.8577 41.7111 20.5867C42.4362 20.3157 43.0559 19.8567 43.4918 19.2678C43.9278 18.6789 44.1605 17.9866 44.1605 17.2783C44.1605 16.3286 43.7425 15.4177 42.9984 14.7462C42.2543 14.0746 41.2451 13.6974 40.1927 13.6974ZM40.1927 23.3887C38.8543 23.3859 37.5469 23.0251 36.4355 22.352C35.3242 21.6789 34.4589 20.7236 33.9489 19.6068C33.4388 18.49 33.307 17.2619 33.57 16.0776C33.833 14.8932 34.4791 13.8058 35.4266 12.9526C36.3741 12.0995 37.5805 11.519 38.8934 11.2843C40.2063 11.0497 41.5668 11.1715 42.803 11.6344C44.0393 12.0973 45.0957 12.8805 45.839 13.885C46.5823 14.8896 46.9789 16.0704 46.9789 17.2783C46.9748 18.9002 46.258 20.4543 44.9857 21.5998C43.7135 22.7454 41.9898 23.3887 40.1927 23.3887Z" fill="#212121"/>
</svg>
