<svg xmlns="http://www.w3.org/2000/svg" viewBox="0 0 304.81 340.18"><defs><style>.cls-1{fill:#ffa000;}.cls-2{fill:#fff;}.cls-3{fill:#d42128;}</style></defs><g id="Layer_2" data-name="Layer 2"><g id="Layer_1-2" data-name="Layer 1"><path class="cls-1" d="M186.19,232.41a8,8,0,0,1,0,13.78l-3.3,1.91-15.24,8.8-26.5,15.3a8,8,0,0,1-8,0l-26.51-15.3-15.24-8.8-3.3-1.91a8,8,0,0,1,0-13.78l3.3-1.91,15.24-8.8,26.51-15.3a8,8,0,0,1,8,0l26.5,15.3,15.24,8.8Z"/><path class="cls-1" d="M91.44,124.91h0l-15.24,8.8-11.35,6.55A7.8,7.8,0,0,0,61,147v52.43a7.78,7.78,0,0,0,11.67,6.74l3.57-2.06,30.48-17.6L118,180a7.8,7.8,0,0,0,3.89-6.74V120.79a7.78,7.78,0,0,0-11.67-6.74Zm15.24,8.8Z"/><path class="cls-1" d="M198.13,133.71h0l-15.24-8.8h0l-18.54-10.7a8,8,0,0,0-11.94,6.9v52a8,8,0,0,0,4,6.9l11.26,6.5,30.48,17.6,3.3,1.9a8,8,0,0,0,11.94-6.9v-52a8,8,0,0,0-4-6.9Zm-30.48,0Z"/><path class="cls-2" d="M304.05,248.54c-.06-.33-.12-.66-.19-1h0a45.81,45.81,0,0,0-14.29-24.73c-.25-.23-.51-.45-.77-.67a45.19,45.19,0,0,0-6-4.35l-.14-.09-1.5-.86,0,0a45.65,45.65,0,0,0-6.8-3.05l-.95-.33h0a46.11,46.11,0,0,0-28.58,0h0l-1,.33a45.63,45.63,0,0,0-6.83,3.07h0l-1.39.8-.08,0a45.94,45.94,0,0,0-6.16,4.45c-.26.22-.52.44-.77.67A45.76,45.76,0,0,0,219.49,234a45.25,45.25,0,0,0-5.16,13.51h0c-.06.33-.13.66-.19,1a46.36,46.36,0,0,0,0,16.72l-.76.44-15.24,8.8-15.24,8.8h0l-15.24,8.8h0l-15.24,8.8h0a30.5,30.5,0,0,1-30.48,0h0l-15.25-8.8h0l-15.24-8.8h0L76.2,274.5,61,265.7l-15.24-8.8a30.46,30.46,0,0,1-15.24-26.39v-88a30.46,30.46,0,0,1,15.24-26.39h0L76.2,98.52l15.24-8.8,15.24-8.8.77-.45a46,46,0,0,0,6,4.36l.07,0,1.62.93a44.93,44.93,0,0,0,6.78,3l.95.33a46.11,46.11,0,0,0,28.58,0l.95-.33a45.56,45.56,0,0,0,6.76-3h0l1.62-.93.07,0a46,46,0,0,0,6-4.36l.77-.67a45.62,45.62,0,0,0,14.28-24.73h0c.07-.33.14-.66.19-1a45.77,45.77,0,0,0,0-16.72c-.05-.33-.12-.66-.19-1a45.71,45.71,0,0,0-14.28-24.73l-.77-.67a46.59,46.59,0,0,0-6.16-4.45l-1.47-.84a45.23,45.23,0,0,0-6.84-3.08l-.95-.32a45.92,45.92,0,0,0-28.58,0l-.95.32a44.66,44.66,0,0,0-6.76,3l-.09,0-1.29.74-.18.1A47.25,47.25,0,0,0,107.45,11l-.77.67A45.71,45.71,0,0,0,92.4,36.37h0c-.07.33-.13.66-.19,1a45.77,45.77,0,0,0,0,16.72l-.77.44L76.2,63.32,61,72.12,30.48,89.72l-15.24,8.8h0A30.46,30.46,0,0,0,0,124.91V248.1a30.48,30.48,0,0,0,15.24,26.4h0l30.48,17.6L61,300.9l30.48,17.6,15.24,8.8,15.25,8.79a30.45,30.45,0,0,0,30.48,0l15.24-8.79,15.24-8.8,30.48-17.6,15.24-8.8.77-.45h0a45.08,45.08,0,0,0,6.22,4.49l0,0,1.28.74,0,0a46.44,46.44,0,0,0,6.89,3.1l1,.33a46.08,46.08,0,0,0,28.57,0l.95-.33a45.71,45.71,0,0,0,6.91-3.11l1.22-.71.1-.05a45.34,45.34,0,0,0,6.24-4.5h0c.26-.22.52-.44.77-.67a45.81,45.81,0,0,0,14.29-24.73c.06-.32.13-.66.19-1a46.36,46.36,0,0,0,0-16.72ZM121.93,19.32h0Zm15.24,8.8c11.94,0,21.11,11.9,16.29,24.5A16.33,16.33,0,0,1,144.08,62c-12.6,4.85-24.52-4.32-24.52-16.28A17.61,17.61,0,0,1,137.17,28.12ZM274.33,230.5h0ZM266,273.2c-12.6,4.81-24.5-4.35-24.5-16.3a17.6,17.6,0,0,1,17.6-17.6c12,0,21.13,11.92,16.28,24.53A16.34,16.34,0,0,1,266,273.2Zm-22.14-42.7h0Zm0,52.8Zm30.48,0Z"/><circle class="cls-3" cx="259.09" cy="256.9" r="18.92"/><circle class="cls-3" cx="137.17" cy="45.72" r="18.92"/></g></g></svg>